<?xml version="1.0" encoding="UTF-8"?>
<svg id="Layer_2" data-name="Layer 2" xmlns="http://www.w3.org/2000/svg" viewBox="0 0 88.31 94.41">
  <defs>
    <style>
      .cls-1 {
        fill: #172a39;
      }
    </style>
  </defs>
  <g id="Layer_1-2" data-name="Layer 1">
    <g id="LogoUDarkBlue">
      <g>
        <path class="cls-1" d="M21.7,21.7v29.8c0,4.26.93,7.99,2.78,11.19,1.86,3.2,4.48,5.68,7.86,7.42,3.39,1.74,7.35,2.61,11.88,2.61s8.42-.87,11.81-2.61c3.39-1.74,6-4.21,7.83-7.42,1.83-3.2,2.75-6.93,2.75-11.19v-29.8h-10.85v29.8c0,2.93-.62,5.28-1.86,7.04-1.23,1.76-2.74,3.01-4.5,3.74-1.76.73-3.49,1.1-5.18,1.1s-3.49-.37-5.25-1.1c-1.76-.73-3.27-1.98-4.53-3.74-1.26-1.76-1.89-4.11-1.89-7.04v-29.8h-10.85Z"/>
        <polygon class="cls-1" points="77.46 0 55.76 0 55.76 10.85 77.46 10.85 77.46 83.56 10.85 83.56 10.85 10.85 32.55 10.85 32.55 0 10.85 0 0 0 0 0 0 94.41 0 94.41 0 94.41 77.46 94.41 77.46 94.41 88.31 94.41 88.31 94.41 88.31 83.56 88.31 10.85 88.31 0 77.46 0"/>
      </g>
    </g>
  </g>
</svg>