<?xml version="1.0" encoding="UTF-8"?>
<svg id="Layer_2" data-name="Layer 2" xmlns="http://www.w3.org/2000/svg" viewBox="0 0 808.31 275.85">
  <defs>
    <style>
      .cls-1 {
        fill: #182939;
      }
    </style>
  </defs>
  <g id="Layer_3" data-name="Layer 3">
    <g>
      <polygon class="cls-1" points="808.31 31.7 808.31 0 808.3 0 776.6 0 162.9 0 162.9 31.7 776.6 31.7 776.6 244.15 31.7 244.15 31.7 31.7 95.09 31.7 95.09 0 31.7 0 0 0 0 0 0 275.85 0 275.85 0 275.85 808.31 275.85 808.31 244.15 808.3 244.15 808.3 31.7 808.31 31.7"/>
      <g>
        <path class="cls-1" d="M94.49,204.83c-9.89-5.09-17.55-12.31-22.97-21.67-5.41-9.36-8.12-20.26-8.12-32.69V63.39h31.7v87.07c0,8.56,1.84,15.41,5.52,20.56,3.67,5.14,8.09,8.79,13.24,10.93,5.14,2.14,10.26,3.21,15.35,3.21s9.99-1.07,15.14-3.21c5.15-2.14,9.53-5.79,13.14-10.93,3.61-5.15,5.42-12.01,5.42-20.56V63.39h31.7v87.07c0,12.43-2.68,23.34-8.02,32.69-5.36,9.36-12.98,16.59-22.87,21.67-9.9,5.08-21.4,7.62-34.51,7.62s-24.82-2.54-34.71-7.62Z"/>
        <path class="cls-1" d="M254.39,178.25c9.49,3.81,18.19,5.71,26.08,5.71,8.29,0,14.87-1.6,19.76-4.82,4.87-3.21,7.32-7.02,7.32-11.43,0-3.62-1.45-6.56-4.32-8.83-2.87-2.27-6.51-3.98-10.93-5.11s-10.24-2.38-17.45-3.71c-9.63-1.61-18.46-3.68-26.48-6.22-8.02-2.54-15.32-6.96-21.87-13.24-6.56-6.29-9.83-14.78-9.83-25.48,0-15.78,5.78-27.12,17.36-34.01,11.56-6.88,25.18-10.33,40.83-10.33,12.03,0,22.5,1.63,31.4,4.91,8.89,3.27,17.76,8.19,26.58,14.74l-17.66,24.07c-6.55-4.68-13.37-8.36-20.46-11.04-7.09-2.67-14.11-4.01-21.07-4.01-6.16,0-11.9,1.1-17.25,3.31-5.36,2.21-8.02,5.92-8.02,11.14,0,3.22,1.36,5.79,4.11,7.73,2.74,1.93,5.75,3.34,9.03,4.21,3.28.87,8.6,2.11,15.95,3.71l7.22,1.4c11.1,2.15,20.29,4.51,27.58,7.13,7.29,2.6,13.61,6.99,18.96,13.14,5.35,6.15,8.02,14.71,8.02,25.67,0,14.85-5.26,26.16-15.76,33.91-10.5,7.76-24.71,11.63-42.63,11.63-26.21,0-48.29-7.62-66.21-22.87l16.85-24.27c5.76,4.82,13.37,9.13,22.87,12.94Z"/>
        <path class="cls-1" d="M366.73,212.45V63.18h31.7v149.27h-31.7Z"/>
        <polygon class="cls-1" points="535.26 63.29 535.26 146.81 434.37 63.77 433.92 63.29 433.92 63.39 433.92 103.2 433.92 212.56 465.61 212.56 465.61 129.54 566.96 213.77 566.96 63.29 535.26 63.29"/>
        <path class="cls-1" d="M664.46,61.18l80.45,151.27h-34.7l-11.64-22.47h-68.41l-11.24,22.47h-34.91l80.45-151.27ZM683.32,162.9l-18.86-38.32-18.65,38.32h37.51Z"/>
      </g>
    </g>
  </g>
</svg>